<?xml version="1.0" encoding="UTF-8" standalone="no"?>
<!-- Generator: Adobe Illustrator 19.1.0, SVG Export Plug-In . SVG Version: 6.00 Build 0)  -->

<svg
   xmlns:dc="http://purl.org/dc/elements/1.1/"
   xmlns:cc="http://creativecommons.org/ns#"
   xmlns:rdf="http://www.w3.org/1999/02/22-rdf-syntax-ns#"
   xmlns:svg="http://www.w3.org/2000/svg"
   xmlns="http://www.w3.org/2000/svg"
   xmlns:sodipodi="http://sodipodi.sourceforge.net/DTD/sodipodi-0.dtd"
   xmlns:inkscape="http://www.inkscape.org/namespaces/inkscape"
   version="1.1"
   id="Capa_1"
   x="0px"
   y="0px"
   viewBox="0 0 482.9 482.9"
   style="enable-background:new 0 0 482.9 482.9;"
   xml:space="preserve"
   width="512px"
   height="512px"
   sodipodi:docname="avatar.svg"
   inkscape:version="0.92.3 (2405546, 2018-03-11)"><metadata
   id="metadata45"><rdf:RDF><cc:Work
       rdf:about=""><dc:format>image/svg+xml</dc:format><dc:type
         rdf:resource="http://purl.org/dc/dcmitype/StillImage" /></cc:Work></rdf:RDF></metadata><defs
   id="defs43" /><sodipodi:namedview
   pagecolor="#ffffff"
   bordercolor="#666666"
   borderopacity="1"
   objecttolerance="10"
   gridtolerance="10"
   guidetolerance="10"
   inkscape:pageopacity="0"
   inkscape:pageshadow="2"
   inkscape:window-width="1440"
   inkscape:window-height="755"
   id="namedview41"
   showgrid="false"
   inkscape:zoom="0.8762876"
   inkscape:cx="219.10074"
   inkscape:cy="245.81749"
   inkscape:window-x="0"
   inkscape:window-y="27"
   inkscape:window-maximized="1"
   inkscape:current-layer="g6" />
<g
   id="g8"
   transform="matrix(0.6174305,0,0,0.6174305,92.371555,92.371405)">
	<g
   id="g6">
		<path
   d="m 239.7,260.2 c 0.5,0 1,0 1.6,0 0.2,0 0.4,0 0.6,0 0.3,0 0.7,0 1,0 29.3,-0.5 53,-10.8 70.5,-30.5 38.5,-43.4 32.1,-117.8 31.4,-124.9 C 342.3,51.5 317.1,26 296.3,14.1 280.8,5.2 262.7,0.4 242.5,0 h -0.7 c -0.1,0 -0.3,0 -0.4,0 h -0.6 c -11.1,0 -32.9,1.8 -53.8,13.7 -21,11.9 -46.6,37.4 -49.1,91.1 -0.7,7.1 -7.1,81.5 31.4,124.9 17.4,19.7 41.1,30 70.4,30.5 z M 164.6,107.3 c 0,-0.3 0.1,-0.6 0.1,-0.8 3.3,-71.7 54.2,-79.4 76,-79.4 h 0.4 c 0.2,0 0.5,0 0.8,0 27,0.6 72.9,11.6 76,79.4 0,0.3 0,0.6 0.1,0.8 0.1,0.7 7.1,68.7 -24.7,104.5 -12.6,14.2 -29.4,21.2 -51.5,21.4 -0.2,0 -0.3,0 -0.5,0 v 0 c -0.2,0 -0.3,0 -0.5,0 -22,-0.2 -38.9,-7.2 -51.4,-21.4 -31.7,-35.6 -24.9,-103.9 -24.8,-104.5 z"
   id="path2"
   inkscape:connector-curvature="0"
   style="fill:#dddddd" />
		<path
   d="m 446.8,383.6 c 0,-0.1 0,-0.2 0,-0.3 0,-0.8 -0.1,-1.6 -0.1,-2.5 -0.6,-19.8 -1.9,-66.1 -45.3,-80.9 -0.3,-0.1 -0.7,-0.2 -1,-0.3 -45.1,-11.5 -82.6,-37.5 -83,-37.8 -6.1,-4.3 -14.5,-2.8 -18.8,3.3 -4.3,6.1 -2.8,14.5 3.3,18.8 1.7,1.2 41.5,28.9 91.3,41.7 23.3,8.3 25.9,33.2 26.6,56 0,0.9 0,1.7 0.1,2.5 0.1,9 -0.5,22.9 -2.1,30.9 -16.2,9.2 -79.7,41 -176.3,41 C 145.3,456 81.4,424.1 65.1,414.9 63.5,406.9 62.8,393 63,384 c 0,-0.8 0.1,-1.6 0.1,-2.5 0.7,-22.8 3.3,-47.7 26.6,-56 49.8,-12.8 89.6,-40.6 91.3,-41.7 6.1,-4.3 7.6,-12.7 3.3,-18.8 -4.3,-6.1 -12.7,-7.6 -18.8,-3.3 -0.4,0.3 -37.7,26.3 -83,37.8 -0.4,0.1 -0.7,0.2 -1,0.3 -43.4,14.9 -44.7,61.2 -45.3,80.9 0,0.9 0,1.7 -0.1,2.5 0,0.1 0,0.2 0,0.3 -0.1,5.2 -0.2,31.9 5.1,45.3 1,2.6 2.8,4.8 5.2,6.3 3,2 74.9,47.8 195.2,47.8 120.3,0 192.2,-45.9 195.2,-47.8 2.3,-1.5 4.2,-3.7 5.2,-6.3 5,-13.3 4.9,-40 4.8,-45.2 z"
   id="path4"
   inkscape:connector-curvature="0"
   style="fill:#dddddd" />
	<path
   style="opacity:1;vector-effect:none;fill:#e6e6e6;fill-opacity:1;stroke:none;stroke-width:1.52157032;stroke-linecap:butt;stroke-linejoin:miter;stroke-miterlimit:4;stroke-dasharray:none;stroke-dashoffset:0;stroke-opacity:1"
   d="m 243.12319,267.04709 c -23.58195,-4.22725 -40.77672,-20.58726 -49.12482,-46.73993 -4.5309,-14.19426 -5.35456,-20.61213 -5.34572,-41.65299 0.007,-15.7537 0.48894,-22.60343 2.06945,-29.38941 7.69697,-33.04734 34.56375,-52.704223 69.23281,-50.653687 18.86152,1.115583 32.25919,6.758327 44.11825,18.581447 12.48067,12.44284 18.19792,28.27257 19.41713,53.76146 2.40555,50.29064 -15.86239,85.63003 -48.85005,94.50058 -7.9786,2.14549 -23.93466,2.95173 -31.51705,1.59253 z m 30.91844,-19.38307 c 13.91671,-5.20691 25.62267,-21.16508 30.11257,-41.05099 2.74445,-12.15529 2.7232,-44.47296 -0.0359,-54.65651 -6.97188,-25.7321 -29.2106,-39.7808 -56.64278,-35.78252 -20.70689,3.01806 -33.14458,14.05022 -39.61765,35.14065 -3.22124,10.49537 -2.90817,45.55405 0.51767,57.97097 6.42433,23.28487 18.7342,36.80827 37.05187,40.70452 7.28023,1.54853 21.3057,0.40837 28.61426,-2.32612 z"
   id="path51"
   inkscape:connector-curvature="0"
   transform="matrix(1.5275631,0,0,1.5275631,-149.6064,-149.60616)" /><path
   style="opacity:1;vector-effect:none;fill:#e6e6e6;fill-opacity:1;stroke:none;stroke-width:1.52157032;stroke-linecap:butt;stroke-linejoin:miter;stroke-miterlimit:4;stroke-dasharray:none;stroke-dashoffset:0;stroke-opacity:1"
   d="m 235.752,413.12779 c -36.03778,-2.58987 -77.76398,-13.82904 -101.88893,-27.44432 -7.89381,-4.45499 -9.2563,-6.46301 -10.77636,-15.88201 -2.57849,-15.9775 -1.03612,-38.79647 3.42895,-50.73044 5.24091,-14.0076 13.85305,-21.21544 32.1352,-26.89528 13.54226,-4.20725 28.56201,-11.01841 41.02707,-18.60495 10.25986,-6.2444 14.46137,-6.78853 17.97057,-2.32731 2.60809,3.31564 2.97598,6.27252 1.19456,9.60113 -2.72832,5.0979 -36.35493,22.23782 -53.73005,27.3869 -4.63908,1.37479 -10.51466,3.68404 -13.05684,5.13167 -8.97195,5.10904 -13.17234,17.89001 -12.92248,39.32061 0.20594,17.66323 -0.28706,16.83438 13.71251,23.05408 20.75459,9.22082 46.66908,16.11232 72.30278,19.22766 15.22312,1.85011 50.14799,1.52405 66.18832,-0.61793 25.75619,-3.4394 52.40626,-10.89566 70.87131,-19.82866 10.75455,-5.20282 10.7229,-5.13522 10.7229,-22.90938 0,-13.94165 -1.65894,-23.0863 -5.46197,-30.10829 -3.50936,-6.47977 -8.44454,-9.64944 -20.66099,-13.26976 -17.37511,-5.14908 -51.00173,-22.289 -53.73004,-27.3869 -1.78142,-3.32861 -1.41352,-6.28549 1.19456,-9.60113 3.49775,-4.44667 7.81852,-3.93441 17.4504,2.06888 11.26253,7.01963 25.01496,13.28579 41.68295,18.99244 15.76267,5.3967 21.64308,9.16683 27.21685,17.44969 6.00141,8.91836 8.4222,18.50863 9.10794,36.08224 0.67502,17.29858 -0.7981,29.82809 -4.02089,34.19916 -5.04279,6.83954 -39.48013,20.82381 -66.05071,26.82176 -24.44102,5.51723 -58.72998,8.07954 -83.90761,6.27014 z"
   id="path53"
   inkscape:connector-curvature="0"
   transform="matrix(1.5275631,0,0,1.5275631,-149.6064,-149.60616)" /></g>
</g>
<g
   id="g10">
</g>
<g
   id="g12">
</g>
<g
   id="g14">
</g>
<g
   id="g16">
</g>
<g
   id="g18">
</g>
<g
   id="g20">
</g>
<g
   id="g22">
</g>
<g
   id="g24">
</g>
<g
   id="g26">
</g>
<g
   id="g28">
</g>
<g
   id="g30">
</g>
<g
   id="g32">
</g>
<g
   id="g34">
</g>
<g
   id="g36">
</g>
<g
   id="g38">
</g>
</svg>